<svg xmlns="http://www.w3.org/2000/svg" viewBox="0 0 2446.55 2093.97"><defs><style>.cls-1{fill:#f3ba2f;}</style></defs><g id="Layer_2" data-name="Layer 2"><g id="Layer_1-2" data-name="Layer 1"><path class="cls-1" d="M0,2081.34V1576.2H224.71q37.14,0,67.23,9.48t51.44,27.48a120.35,120.35,0,0,1,32.87,44.2q11.5,26.19,11.51,60a98.08,98.08,0,0,1-5,30.83,119.18,119.18,0,0,1-13.37,28,110.52,110.52,0,0,1-19.5,22.66,79.21,79.21,0,0,1-23.4,14.67,139.06,139.06,0,0,1,34.35,17.65,137.64,137.64,0,0,1,28.42,26.55,123.54,123.54,0,0,1,19.31,33.8,109,109,0,0,1,7.06,39q0,40.86-14.86,69.46T362,2046.61A160,160,0,0,1,307.54,2073a232.12,232.12,0,0,1-61.66,8.36Zm117.37-302.71H217.65a46.84,46.84,0,0,0,18.2-3.72,50.51,50.51,0,0,0,16-10.58,55,55,0,0,0,11.52-16.53,50.76,50.76,0,0,0,4.45-21.54,53.09,53.09,0,0,0-4.27-21.36,54.05,54.05,0,0,0-11.33-16.9,51.7,51.7,0,0,0-16-11,45,45,0,0,0-18.2-3.9H117.37ZM234,1984.4a63.12,63.12,0,0,0,19.87-3.53,61.9,61.9,0,0,0,19.5-10.77,59.24,59.24,0,0,0,14.85-18.39q5.94-11.14,5.95-26.37a56.07,56.07,0,0,0-37-53.86A66,66,0,0,0,234,1867.4H117.37v117Z"/><path class="cls-1" d="M498.82,1942.05q15.6,7.44,36.77,16t44.76,16a474.81,474.81,0,0,0,48.28,12.44,239.88,239.88,0,0,0,47.73,5q25.62,0,42.9-4.27t28-11.88q10.77-7.62,15.41-18.2a58.05,58.05,0,0,0,4.65-23.59q0-14.49-8-24.51T736,1891.17q-15.42-7.8-37.89-14.49t-51.44-14.85q-14.11-3.7-32.12-8.73a382.44,382.44,0,0,1-36.59-12.26,261.64,261.64,0,0,1-36.21-17.46,155.24,155.24,0,0,1-31.57-24,107.93,107.93,0,0,1-22.29-31.76q-8.36-18-8.36-41,0-37.89,12.26-68.16a129.11,129.11,0,0,1,37.7-51.44q25.44-21.16,64.63-32.31t93.41-11.14a337.39,337.39,0,0,1,53.11,4.08,429.62,429.62,0,0,1,49.22,10.77q23.58,6.69,45.12,15T876.18,1610l-31.57,97.69q-7.07-3.35-18.38-7.8t-25.45-9.1q-14.12-4.65-30.08-9.29t-32.32-8.17q-16.33-3.52-32.12-5.76a212.84,212.84,0,0,0-29.53-2.22q-23.78,0-39.19,4.08t-24.32,11.14q-8.93,7.07-12.45,16a49.17,49.17,0,0,0-3.53,18.2,32.86,32.86,0,0,0,8.36,22.48q8.35,9.46,22.84,16.34a180.44,180.44,0,0,0,34.17,11.7q19.7,4.83,42.72,8.91,39.36,9.66,72.8,21.17t57.57,29.72a127.46,127.46,0,0,1,37.7,45.31q13.54,27.12,13.55,67.23,0,38.25-16.71,67.41t-45.87,49q-29.16,19.88-69.09,29.9t-86.35,10a433.54,433.54,0,0,1-65.37-4.65,472.41,472.41,0,0,1-56.27-11.88,400.39,400.39,0,0,1-47-16.16q-21.17-8.91-37.51-17.46Z"/><path class="cls-1" d="M1428.86,2010.4a289.85,289.85,0,0,1-37.52,32.12,262.43,262.43,0,0,1-45.31,26.19,280.68,280.68,0,0,1-52.19,17.64,253.56,253.56,0,0,1-58.12,6.5,282.58,282.58,0,0,1-73.54-9.47,287.49,287.49,0,0,1-65.93-26.56,269,269,0,0,1-98.8-94.89,261.35,261.35,0,0,1-27.86-63.33,258,258,0,0,1,0-141.14,262.19,262.19,0,0,1,70.94-116.81,277,277,0,0,1,121.65-67.79,288.19,288.19,0,0,1,73.54-9.28,259.25,259.25,0,0,1,57.2,6.12,274.68,274.68,0,0,1,51.25,16.9,257.15,257.15,0,0,1,45.32,26,320.74,320.74,0,0,1,39.37,33.43l-71.69,76.14a147.65,147.65,0,0,0-53.85-42.34,158.47,158.47,0,0,0-67.6-14.86,154.54,154.54,0,0,0-61.66,12.45,157.09,157.09,0,0,0-50.51,34.35,161.74,161.74,0,0,0-34,51.82q-12.45,29.9-12.44,64.81t12.44,64.81a161.52,161.52,0,0,0,34,51.82,156.77,156.77,0,0,0,50.51,34.35,157.69,157.69,0,0,0,96.2,8.55,162.13,162.13,0,0,0,32.87-11.33,159.76,159.76,0,0,0,29.53-18,157,157,0,0,0,24.88-23.95Z"/><path class="cls-1" d="M1530.63,1576.2h355.82v101.4H1648.37v103.26h204.28v101H1648.37v98.43h241.42v101H1530.63Z"/><path class="cls-1" d="M2188,1731.09l101.77-154.89H2428l-166.4,239.94,185,265.2H2308l-120-181.26-119.6,181.26H1929.53l185-265.2L1948.1,1576.2h138.17Z"/><circle cx="1223.27" cy="693.13" r="621.74"/><polygon class="cls-1" points="880.9 691.5 1096.36 476.05 1311.93 691.62 1437.3 566.25 1096.36 225.3 755.53 566.13 880.9 691.5"/><polygon class="cls-1" points="1134.56 694.76 1350.01 910.21 1565.58 694.66 1691.02 819.95 1690.95 820.02 1350.01 1160.96 1009.18 820.14 1009 819.96 1134.56 694.76"/><path class="cls-1" d="M1223.27,1386.26A693.3,693.3,0,0,1,953.46,54.49a693.3,693.3,0,0,1,539.63,1277.28A688.84,688.84,0,0,1,1223.27,1386.26Zm0-1270.49c-318.35,0-577.35,259-577.35,577.36s259,577.36,577.35,577.36,577.36-259,577.36-577.36S1541.63,115.77,1223.27,115.77Z"/></g></g></svg>