<svg xmlns="http://www.w3.org/2000/svg" viewBox="0 0 2346.84 2346.84"><defs><style>.cls-1{fill:#f3ba2f;}</style></defs><g id="Layer_2" data-name="Layer 2"><g id="Layer_1-2" data-name="Layer 1"><circle cx="1173.42" cy="1173.42" r="1064.73"/><polygon class="cls-1" points="593.81 1170.66 958.56 805.92 1323.51 1170.86 1535.75 958.62 958.56 381.41 381.57 958.42 593.81 1170.66"/><polygon class="cls-1" points="1023.23 1176.18 1387.98 1540.92 1752.91 1176 1965.27 1388.12 1965.17 1388.24 1387.98 1965.43 810.97 1388.43 810.67 1388.14 1023.23 1176.18"/><path class="cls-1" d="M1173.42,2346.84c-158.37,0-312.05-31-456.78-92.25A1177.24,1177.24,0,0,1,92.25,1630.2C31,1485.47,0,1331.79,0,1173.42S31,861.37,92.25,716.64A1177.33,1177.33,0,0,1,716.64,92.25C861.37,31,1015.05,0,1173.42,0s312,31,456.78,92.25a1177.24,1177.24,0,0,1,624.39,624.39c61.21,144.73,92.25,298.41,92.25,456.78s-31,312-92.25,456.78a1177.15,1177.15,0,0,1-624.39,624.39C1485.47,2315.8,1331.79,2346.84,1173.42,2346.84Zm0-2150.84C634.47,196,196,634.47,196,1173.42s438.47,977.43,977.42,977.43,977.43-438.48,977.43-977.43S1712.37,196,1173.42,196Z"/></g></g></svg>